<svg xmlns="http://www.w3.org/2000/svg" viewBox="0 0 190 100">
  <!-- 13 alternating red and white stripes -->
  <rect width="190" height="100" fill="#B22234"/>
  <rect y="7.6923" width="190" height="7.6923" fill="#FFFFFF"/>
  <rect y="23.0769" width="190" height="7.6923" fill="#FFFFFF"/>
  <rect y="38.4615" width="190" height="7.6923" fill="#FFFFFF"/>
  <rect y="53.8461" width="190" height="7.6923" fill="#FFFFFF"/>
  <rect y="69.2307" width="190" height="7.6923" fill="#FFFFFF"/>
  <rect y="84.6153" width="190" height="7.6923" fill="#FFFFFF"/>
  <!-- Blue canton: 2/5 of fly width, 7/13 of hoist height -->
  <rect width="76" height="53.8461" fill="#3C3B6E"/>
  <!-- 50 stars: 5 rows of 6, 4 rows of 5, staggered -->
  <g fill="#FFFFFF">
    <!-- Star shape reused via polygon -->
    <!-- Row 1: 6 stars -->
    <polygon points="6.33,4.61 7.53,7.90 11.05,7.90 8.09,9.97 9.29,13.26 6.33,11.19 3.37,13.26 4.57,9.97 1.61,7.90 5.13,7.90" />
    <polygon points="19.00,4.61 20.20,7.90 23.72,7.90 20.76,9.97 21.96,13.26 19.00,11.19 16.04,13.26 17.24,9.97 14.28,7.90 17.80,7.90" />
    <polygon points="31.67,4.61 32.87,7.90 36.39,7.90 33.43,9.97 34.63,13.26 31.67,11.19 28.71,13.26 29.91,9.97 26.95,7.90 30.47,7.90" />
    <polygon points="44.33,4.61 45.53,7.90 49.05,7.90 46.09,9.97 47.29,13.26 44.33,11.19 41.37,13.26 42.57,9.97 39.61,7.90 43.13,7.90" />
    <polygon points="57.00,4.61 58.20,7.90 61.72,7.90 58.76,9.97 59.96,13.26 57.00,11.19 54.04,13.26 55.24,9.97 52.28,7.90 55.80,7.90" />
    <polygon points="69.67,4.61 70.87,7.90 74.39,7.90 71.43,9.97 72.63,13.26 69.67,11.19 66.71,13.26 67.91,9.97 64.95,7.90 68.47,7.90" />
    <!-- Row 2: 5 stars (offset) -->
    <polygon points="12.67,10.58 13.87,13.87 17.39,13.87 14.43,15.94 15.63,19.23 12.67,17.16 9.71,19.23 10.91,15.94 7.95,13.87 11.47,13.87" />
    <polygon points="25.33,10.58 26.53,13.87 30.05,13.87 27.09,15.94 28.29,19.23 25.33,17.16 22.37,19.23 23.57,15.94 20.61,13.87 24.13,13.87" />
    <polygon points="38.00,10.58 39.20,13.87 42.72,13.87 39.76,15.94 40.96,19.23 38.00,17.16 35.04,19.23 36.24,15.94 33.28,13.87 36.80,13.87" />
    <polygon points="50.67,10.58 51.87,13.87 55.39,13.87 52.43,15.94 53.63,19.23 50.67,17.16 47.71,19.23 48.91,15.94 45.95,13.87 49.47,13.87" />
    <polygon points="63.33,10.58 64.53,13.87 68.05,13.87 65.09,15.94 66.29,19.23 63.33,17.16 60.37,19.23 61.57,15.94 58.61,13.87 62.13,13.87" />
    <!-- Row 3: 6 stars -->
    <polygon points="6.33,16.55 7.53,19.84 11.05,19.84 8.09,21.91 9.29,25.20 6.33,23.13 3.37,25.20 4.57,21.91 1.61,19.84 5.13,19.84" />
    <polygon points="19.00,16.55 20.20,19.84 23.72,19.84 20.76,21.91 21.96,25.20 19.00,23.13 16.04,25.20 17.24,21.91 14.28,19.84 17.80,19.84" />
    <polygon points="31.67,16.55 32.87,19.84 36.39,19.84 33.43,21.91 34.63,25.20 31.67,23.13 28.71,25.20 29.91,21.91 26.95,19.84 30.47,19.84" />
    <polygon points="44.33,16.55 45.53,19.84 49.05,19.84 46.09,21.91 47.29,25.20 44.33,23.13 41.37,25.20 42.57,21.91 39.61,19.84 43.13,19.84" />
    <polygon points="57.00,16.55 58.20,19.84 61.72,19.84 58.76,21.91 59.96,25.20 57.00,23.13 54.04,25.20 55.24,21.91 52.28,19.84 55.80,19.84" />
    <polygon points="69.67,16.55 70.87,19.84 74.39,19.84 71.43,21.91 72.63,25.20 69.67,23.13 66.71,25.20 67.91,21.91 64.95,19.84 68.47,19.84" />
    <!-- Row 4: 5 stars (offset) -->
    <polygon points="12.67,22.52 13.87,25.81 17.39,25.81 14.43,27.88 15.63,31.17 12.67,29.10 9.71,31.17 10.91,27.88 7.95,25.81 11.47,25.81" />
    <polygon points="25.33,22.52 26.53,25.81 30.05,25.81 27.09,27.88 28.29,31.17 25.33,29.10 22.37,31.17 23.57,27.88 20.61,25.81 24.13,25.81" />
    <polygon points="38.00,22.52 39.20,25.81 42.72,25.81 39.76,27.88 40.96,31.17 38.00,29.10 35.04,31.17 36.24,27.88 33.28,25.81 36.80,25.81" />
    <polygon points="50.67,22.52 51.87,25.81 55.39,25.81 52.43,27.88 53.63,31.17 50.67,29.10 47.71,31.17 48.91,27.88 45.95,25.81 49.47,25.81" />
    <polygon points="63.33,22.52 64.53,25.81 68.05,25.81 65.09,27.88 66.29,31.17 63.33,29.10 60.37,31.17 61.57,27.88 58.61,25.81 62.13,25.81" />
    <!-- Row 5: 6 stars -->
    <polygon points="6.33,28.49 7.53,31.78 11.05,31.78 8.09,33.85 9.29,37.14 6.33,35.07 3.37,37.14 4.57,33.85 1.61,31.78 5.13,31.78" />
    <polygon points="19.00,28.49 20.20,31.78 23.72,31.78 20.76,33.85 21.96,37.14 19.00,35.07 16.04,37.14 17.24,33.85 14.28,31.78 17.80,31.78" />
    <polygon points="31.67,28.49 32.87,31.78 36.39,31.78 33.43,33.85 34.63,37.14 31.67,35.07 28.71,37.14 29.91,33.85 26.95,31.78 30.47,31.78" />
    <polygon points="44.33,28.49 45.53,31.78 49.05,31.78 46.09,33.85 47.29,37.14 44.33,35.07 41.37,37.14 42.57,33.85 39.61,31.78 43.13,31.78" />
    <polygon points="57.00,28.49 58.20,31.78 61.72,31.78 58.76,33.85 59.96,37.14 57.00,35.07 54.04,37.14 55.24,33.85 52.28,31.78 55.80,31.78" />
    <polygon points="69.67,28.49 70.87,31.78 74.39,31.78 71.43,33.85 72.63,37.14 69.67,35.07 66.71,37.14 67.91,33.85 64.95,31.78 68.47,31.78" />
    <!-- Row 6: 5 stars (offset) -->
    <polygon points="12.67,34.46 13.87,37.75 17.39,37.75 14.43,39.82 15.63,43.11 12.67,41.04 9.71,43.11 10.91,39.82 7.95,37.75 11.47,37.75" />
    <polygon points="25.33,34.46 26.53,37.75 30.05,37.75 27.09,39.82 28.29,43.11 25.33,41.04 22.37,43.11 23.57,39.82 20.61,37.75 24.13,37.75" />
    <polygon points="38.00,34.46 39.20,37.75 42.72,37.75 39.76,39.82 40.96,43.11 38.00,41.04 35.04,43.11 36.24,39.82 33.28,37.75 36.80,37.75" />
    <polygon points="50.67,34.46 51.87,37.75 55.39,37.75 52.43,39.82 53.63,43.11 50.67,41.04 47.71,43.11 48.91,39.82 45.95,37.75 49.47,37.75" />
    <polygon points="63.33,34.46 64.53,37.75 68.05,37.75 65.09,39.82 66.29,43.11 63.33,41.04 60.37,43.11 61.57,39.82 58.61,37.75 62.13,37.75" />
    <!-- Row 7: 6 stars -->
    <polygon points="6.33,40.43 7.53,43.72 11.05,43.72 8.09,45.79 9.29,49.08 6.33,47.01 3.37,49.08 4.57,45.79 1.61,43.72 5.13,43.72" />
    <polygon points="19.00,40.43 20.20,43.72 23.72,43.72 20.76,45.79 21.96,49.08 19.00,47.01 16.04,49.08 17.24,45.79 14.28,43.72 17.80,43.72" />
    <polygon points="31.67,40.43 32.87,43.72 36.39,43.72 33.43,45.79 34.63,49.08 31.67,47.01 28.71,49.08 29.91,45.79 26.95,43.72 30.47,43.72" />
    <polygon points="44.33,40.43 45.53,43.72 49.05,43.72 46.09,45.79 47.29,49.08 44.33,47.01 41.37,49.08 42.57,45.79 39.61,43.72 43.13,43.72" />
    <polygon points="57.00,40.43 58.20,43.72 61.72,43.72 58.76,45.79 59.96,49.08 57.00,47.01 54.04,49.08 55.24,45.79 52.28,43.72 55.80,43.72" />
    <polygon points="69.67,40.43 70.87,43.72 74.39,43.72 71.43,45.79 72.63,49.08 69.67,47.01 66.71,49.08 67.91,45.79 64.95,43.72 68.47,43.72" />
    <!-- Row 8: 5 stars (offset) -->
    <polygon points="12.67,46.40 13.87,49.69 17.39,49.69 14.43,51.76 15.63,55.05 12.67,52.98 9.71,55.05 10.91,51.76 7.95,49.69 11.47,49.69" />
    <polygon points="25.33,46.40 26.53,49.69 30.05,49.69 27.09,51.76 28.29,55.05 25.33,52.98 22.37,55.05 23.57,51.76 20.61,49.69 24.13,49.69" />
    <polygon points="38.00,46.40 39.20,49.69 42.72,49.69 39.76,51.76 40.96,55.05 38.00,52.98 35.04,55.05 36.24,51.76 33.28,49.69 36.80,49.69" />
    <polygon points="50.67,46.40 51.87,49.69 55.39,49.69 52.43,51.76 53.63,55.05 50.67,52.98 47.71,55.05 48.91,51.76 45.95,49.69 49.47,49.69" />
    <polygon points="63.33,46.40 64.53,49.69 68.05,49.69 65.09,51.76 66.29,55.05 63.33,52.98 60.37,55.05 61.57,51.76 58.61,49.69 62.13,49.69" />
    <!-- Row 9: 6 stars -->
    <polygon points="6.33,52.37 7.53,55.66 11.05,55.66 8.09,57.73 9.29,61.02 6.33,58.95 3.37,61.02 4.57,57.73 1.61,55.66 5.13,55.66" />
    <polygon points="19.00,52.37 20.20,55.66 23.72,55.66 20.76,57.73 21.96,61.02 19.00,58.95 16.04,61.02 17.24,57.73 14.28,55.66 17.80,55.66" />
    <polygon points="31.67,52.37 32.87,55.66 36.39,55.66 33.43,57.73 34.63,61.02 31.67,58.95 28.71,61.02 29.91,57.73 26.95,55.66 30.47,55.66" />
    <polygon points="44.33,52.37 45.53,55.66 49.05,55.66 46.09,57.73 47.29,61.02 44.33,58.95 41.37,61.02 42.57,57.73 39.61,55.66 43.13,55.66" />
    <polygon points="57.00,52.37 58.20,55.66 61.72,55.66 58.76,57.73 59.96,61.02 57.00,58.95 54.04,61.02 55.24,57.73 52.28,55.66 55.80,55.66" />
    <polygon points="69.67,52.37 70.87,55.66 74.39,55.66 71.43,57.73 72.63,61.02 69.67,58.95 66.71,61.02 67.91,57.73 64.95,55.66 68.47,55.66" />
  </g>
</svg>
